<svg version="1.1" xmlns="http://www.w3.org/2000/svg" viewBox="0 0 900 75" role="banner" aria-labelledby="ariatitle">
	<style><![CDATA[
		:root {
			--cc_special_titles_color: transparent;
			--cc_borders_color: transparent;
			--cc_background: transparent;
		}
		.title_text {
			font: 54px serif;
			fill: var(--cc_special_titles_color);
			background: transparent;

			paint-order: stroke;
			stroke: var(--cc_borders_color);
			stroke-width: 2px;
			stroke-linecap: butt;
			stroke-linejoin: miter;
			font-weight: 1000;

			dominant-baseline: middle;
			text-anchor: middle;
		}
		.paths {
			fill: var(--cc_background);
			stroke: var(--cc_borders_color);
			stroke-width: 3;
		}
		.bkg {
			fill: transparent;
			width: 100%;
			height: 100%;
		}]]>
	</style>
	<title id="ariatitle" class="smf_mbname_text">Forum Name</title>
	<rect class="bkg"/>
	<text x="50%" y="60%" class="smf_mbname_text title_text">Forum Name</text>

	<path class="paths" d="m10.6366,31.39743c4.06074,-16.78237 23.49122,-29.50868 46.9007,-29.50868l0,12.9794c-16.8495,0.01947 -30.47707,10.30565 -30.51579,23.01897c0.03871,12.71008 13.66629,22.98977 30.51579,23.01573l0,12.98589c-23.40948,-0.01298 -42.83996,-12.73929 -46.9007,-29.51517l-8.88287,0l0,-12.97616l8.88287,0l0,0.00002z" id="svg_1"/>
	<path class="paths" d="m888.96117,30.39743c-4.01945,-16.78237 -23.25239,-29.50868 -46.42388,-29.50868l0,12.9794c16.67819,0.01947 30.16721,10.30565 30.20554,23.01897c-0.03832,12.71008 -13.52734,22.98977 -30.20554,23.01573l0,12.98589c23.17149,-0.01298 42.40442,-12.73929 46.42388,-29.51517l8.79256,0l0,-12.97616l-8.79256,0l0,0.00002z" id="svg_4"/>

</svg>